├óΓÇôΓÇ£├óΓÇôΓÇ£├óΓÇôΓÇ£├óΓÇôΓÇ£├óΓÇôΓÇ£├óΓÇôΓÇ£├óΓÇôΓÇ£├óΓÇôΓÇ£├óΓÇôΓÇ£├óΓÇôΓÇ£├óΓÇôΓÇÖ├óΓÇôΓÇÖ├óΓÇôΓÇ£├óΓÇôΓÇ£├óΓÇôΓÇ£├óΓÇôΓÇ£├óΓÇôΓÇ£├óΓÇôΓÇ£├óΓÇôΓÇÖ├óΓÇôΓÇÖ├óΓÇôΓÇ£├óΓÇôΓÇ£├óΓÇôΓÇ£├óΓÇôΓÇ£├óΓÇôΓÇ£ INDIALUCIA FUSION  ├óΓÇôΓÇ£├óΓÇôΓÇ£├óΓÇôΓÇ£├óΓÇôΓÇ£├óΓÇôΓÇ£├óΓÇôΓÇ£├óΓÇôΓÇÖ├óΓÇôΓÇÖ├óΓÇôΓÇ£├óΓÇôΓÇ£├óΓÇôΓÇ£├óΓÇôΓÇ£├óΓÇôΓÇ£├óΓÇôΓÇ£├óΓÇôΓÇ£├óΓÇôΓÇ£├óΓÇôΓÇ£├óΓÇôΓÇ£├óΓÇôΓÇ£├óΓÇôΓÇ£├óΓÇôΓÇ£├óΓÇôΓÇ£├óΓÇôΓÇ£├óΓÇôΓÇ£├óΓÇôΓÇ£├óΓÇôΓÇ£├óΓÇôΓÇ£├óΓÇôΓÇ£├óΓÇôΓÇ£├óΓÇôΓÇ£├óΓÇôΓÇ£├óΓÇôΓÇ£├óΓÇôΓÇ£├óΓÇôΓÇ£├óΓÇôΓÇÖ├óΓÇôΓÇÖ  

├óΓÇôΓÇ£├óΓÇôΓÇ£├óΓÇôΓÇ£├óΓÇôΓÇ£├óΓÇôΓÇ£├óΓÇôΓÇÖ├óΓÇôΓÇÿ  F i L E   i N F O  ├óΓÇôΓÇÿ├óΓÇôΓÇÖ├óΓÇôΓÇ£├óΓÇôΓÇ£├óΓÇôΓÇ£├óΓÇôΓÇ£├óΓÇôΓÇ£├óΓÇôΓÇ£├óΓÇôΓÇ£├óΓÇôΓÇ£├óΓÇôΓÇ£├óΓÇôΓÇ£├óΓÇôΓÇ£├óΓÇôΓÇ£├óΓÇôΓÇ£├óΓÇôΓÇ£├óΓÇôΓÇ£├óΓÇôΓÇ£├óΓÇôΓÇ£├óΓÇôΓÇ£├óΓÇôΓÇ£├óΓÇôΓÇ£├óΓÇôΓÇ£├óΓÇôΓÇ£├óΓÇôΓÇ£├óΓÇôΓÇ£├óΓÇôΓÇ£├óΓÇôΓÇ£├óΓÇôΓÇ£├óΓÇôΓÇ£├óΓÇôΓÇ£├óΓÇôΓÇ£├óΓÇôΓÇ£├óΓÇôΓÇ£├óΓÇôΓÇ£├óΓÇôΓÇ£├óΓÇôΓÇ£├óΓÇôΓÇ£├óΓÇôΓÇ£├óΓÇôΓÇ£├óΓÇôΓÇ£├óΓÇôΓÇ£├óΓÇôΓÇ£├óΓÇôΓÇ£├óΓÇôΓÇ£├óΓÇôΓÇ£├óΓÇôΓÇ£├óΓÇôΓÇ£├óΓÇôΓÇ£├óΓÇôΓÇ£├óΓÇôΓÇ£├óΓÇôΓÇ£├óΓÇôΓÇ£├óΓÇôΓÇ£


Format                           : Windows Media
File size                        : 20.1 MiB
Duration                         : 3mn 59s
Overall bit rate                 : 705 Kbps
Maximum Overall bit rate         : 64.1 Kbps
Encoded date                     : UTC 1970-01-01 00:00:00.000

Video
ID                               : 1
Format                           : MPEG-4 Visual
Codec ID                         : MP43
Codec ID/Info                    : Microsoft MPEG-4 v3 (pre-standard)
Codec ID/Hint                    : Microsoft
Description of the codec         : msmpeg4
Duration                         : 3mn 59s
Bit rate                         : 604 Kbps
Width                            : 320 pixels
Height                           : 240 pixels
Display aspect ratio             : 4:3
Frame rate                       : 29.970 fps
Bit depth                        : 8 bits
Bits/(Pixel*Frame)               : 0.263
Stream size                      : 17.2 MiB (86%)

Audio
ID                               : 2
Format                           : MPEG Audio
Format version                   : Version 2
Format profile                   : Layer 3
Mode                             : Joint stereo
Mode extension                   : MS Stereo
Codec ID                         : 55
Codec ID/Hint                    : MP3
Description of the codec         : mp3
Duration                         : 3mn 59s
Bit rate mode                    : Constant
Bit rate                         : 64.0 Kbps
Channel(s)                       : 2 channels
Sampling rate                    : 22.05 KHz
Bit depth                        :  bit0
Stream size                      : 1.83 MiB (9%)

├óΓÇôΓÇ£├óΓÇôΓÇ£├óΓÇôΓÇ£├óΓÇôΓÇ£├óΓÇôΓÇ£├óΓÇôΓÇÖ├óΓÇôΓÇÖ├óΓÇôΓÇ£├óΓÇôΓÇ£├óΓÇôΓÇ£├óΓÇôΓÇ£├óΓÇôΓÇ£├óΓÇôΓÇ£├óΓÇôΓÇÖ├óΓÇôΓÇÖ├óΓÇôΓÇ£├óΓÇôΓÇ£├óΓÇôΓÇ£├óΓÇôΓÇ£ IMPORTENT NOTE TO REMEMBER ├óΓÇôΓÇ£├óΓÇôΓÇ£├óΓÇôΓÇ£├óΓÇôΓÇ£├óΓÇôΓÇ£├óΓÇôΓÇ£├óΓÇôΓÇÖ├óΓÇôΓÇÖ├óΓÇôΓÇ£├óΓÇôΓÇ£├óΓÇôΓÇ£├óΓÇôΓÇ£├óΓÇôΓÇ£├óΓÇôΓÇ£├óΓÇôΓÇÖ├óΓÇôΓÇÖ├óΓÇôΓÇ£├óΓÇôΓÇ£├óΓÇôΓÇ£├óΓÇôΓÇ£├óΓÇôΓÇ£├óΓÇôΓÇ£├óΓÇôΓÇÖ├óΓÇôΓÇÖ├óΓÇôΓÇ£├óΓÇôΓÇ£├óΓÇôΓÇ£├óΓÇôΓÇ£├óΓÇôΓÇ£├óΓÇôΓÇ£├óΓÇôΓÇ£

             VEDIO QUALITY MAY BOTHER YOU. WAIT SOME TIME FOR GOOD SAOURCE

├óΓÇôΓÇ£├óΓÇôΓÇ£├óΓÇôΓÇ£├óΓÇôΓÇ£├óΓÇôΓÇ£├óΓÇôΓÇÖ├óΓÇôΓÇÖ├óΓÇôΓÇ£├óΓÇôΓÇ£├óΓÇôΓÇ£├óΓÇôΓÇ£├óΓÇôΓÇ£├óΓÇôΓÇ£├óΓÇôΓÇÖ├óΓÇôΓÇÖ├óΓÇôΓÇ£├óΓÇôΓÇ£├óΓÇôΓÇ£├óΓÇôΓÇ£├óΓÇôΓÇ£├óΓÇôΓÇ£├óΓÇôΓÇÖ├óΓÇôΓÇÖ├óΓÇôΓÇ£├óΓÇôΓÇ£├óΓÇôΓÇ£├óΓÇôΓÇ£├óΓÇôΓÇ£├óΓÇôΓÇ£├óΓÇôΓÇÖ├óΓÇôΓÇÖ SCREEN SHOT ├óΓÇôΓÇ£├óΓÇôΓÇ£├óΓÇôΓÇ£├óΓÇôΓÇ£├óΓÇôΓÇ£├óΓÇôΓÇ£├óΓÇôΓÇÖ├óΓÇôΓÇÖ├óΓÇôΓÇ£├óΓÇôΓÇ£├óΓÇôΓÇ£├óΓÇôΓÇ£├óΓÇôΓÇ£├óΓÇôΓÇ£├óΓÇôΓÇÖ├óΓÇôΓÇÖ├óΓÇôΓÇ£├óΓÇôΓÇ£├óΓÇôΓÇ£├óΓÇôΓÇ£├óΓÇôΓÇ£├óΓÇôΓÇ£├óΓÇôΓÇÖ├óΓÇôΓÇÖ├óΓÇôΓÇ£├óΓÇôΓÇ£├óΓÇôΓÇ£├óΓÇôΓÇ£├óΓÇôΓÇ£      

                        http://bayimg.com/cAnciaAce 

├óΓÇôΓÇ£├óΓÇôΓÇ£├óΓÇôΓÇ£├óΓÇôΓÇ£├óΓÇôΓÇ£├óΓÇôΓÇÖ├óΓÇôΓÇÖ├óΓÇôΓÇ£├óΓÇôΓÇ£├óΓÇôΓÇ£├óΓÇôΓÇ£├óΓÇôΓÇ£├óΓÇôΓÇ£├óΓÇôΓÇÖ├óΓÇôΓÇÖ├óΓÇôΓÇ£├óΓÇôΓÇ£├óΓÇôΓÇ£├óΓÇôΓÇ£├óΓÇôΓÇ£├óΓÇôΓÇ£├óΓÇôΓÇÖ├óΓÇôΓÇÖ├óΓÇôΓÇ£├óΓÇôΓÇ£├óΓÇôΓÇ£├óΓÇôΓÇ£├óΓÇôΓÇ£├óΓÇôΓÇ£├óΓÇôΓÇÖ├óΓÇôΓÇÖ├óΓÇôΓÇ£├óΓÇôΓÇ£├óΓÇôΓÇ£├óΓÇôΓÇ£├óΓÇôΓÇ£├óΓÇôΓÇÖ├óΓÇôΓÇÖ├óΓÇôΓÇ£├óΓÇôΓÇ£├óΓÇôΓÇ£├óΓÇôΓÇ£├óΓÇôΓÇ£├óΓÇôΓÇ£├óΓÇôΓÇÖ├óΓÇôΓÇÖ├óΓÇôΓÇ£├óΓÇôΓÇ£├óΓÇôΓÇ£├óΓÇôΓÇ£├óΓÇôΓÇ£├óΓÇôΓÇ£├óΓÇôΓÇÖ├óΓÇôΓÇÖ├óΓÇôΓÇ£├óΓÇôΓÇ£├óΓÇôΓÇ£├óΓÇôΓÇ£├óΓÇôΓÇ£├óΓÇôΓÇ£├óΓÇôΓÇÖ├óΓÇôΓÇÖ├óΓÇôΓÇ£├óΓÇôΓÇ£├óΓÇôΓÇ£├óΓÇôΓÇ£├óΓÇôΓÇ£├óΓÇôΓÇÖ├óΓÇôΓÇÖ├óΓÇôΓÇ£├óΓÇôΓÇ£├óΓÇôΓÇ£├óΓÇôΓÇ£├óΓÇôΓÇ£├óΓÇôΓÇ£├óΓÇôΓÇÖ├óΓÇôΓÇÖ├óΓÇôΓÇ£├óΓÇôΓÇ£├óΓÇôΓÇ£├óΓÇôΓÇ£├óΓÇôΓÇ£├óΓÇôΓÇ£

              Buy  popcorn and a BEER, and enjoy! @ HOME!!

├óΓÇôΓÇ£├óΓÇôΓÇ£├óΓÇôΓÇ£├óΓÇôΓÇ£├óΓÇôΓÇ£├óΓÇôΓÇÖ├óΓÇôΓÇÖ├óΓÇôΓÇ£├óΓÇôΓÇ£├óΓÇôΓÇ£├óΓÇôΓÇ£├óΓÇôΓÇ£├óΓÇôΓÇ£├óΓÇôΓÇÖ├óΓÇôΓÇÖ├óΓÇôΓÇ£├óΓÇôΓÇ£├óΓÇôΓÇ£├óΓÇôΓÇ£├óΓÇôΓÇ£├óΓÇôΓÇ£├óΓÇôΓÇÖ├óΓÇôΓÇÖ├óΓÇôΓÇ£├óΓÇôΓÇ£├óΓÇôΓÇ£├óΓÇôΓÇ£├óΓÇôΓÇ£├óΓÇôΓÇ£├óΓÇôΓÇÖ├óΓÇôΓÇÖ├óΓÇôΓÇ£├óΓÇôΓÇ£├óΓÇôΓÇ£├óΓÇôΓÇ£├óΓÇôΓÇ£├óΓÇôΓÇÖ├óΓÇôΓÇÖ├óΓÇôΓÇ£├óΓÇôΓÇ£├óΓÇôΓÇ£├óΓÇôΓÇ£├óΓÇôΓÇ£├óΓÇôΓÇ£├óΓÇôΓÇÖ├óΓÇôΓÇÖ├óΓÇôΓÇ£├óΓÇôΓÇ£├óΓÇôΓÇ£├óΓÇôΓÇ£├óΓÇôΓÇ£├óΓÇôΓÇ£├óΓÇôΓÇÖ├óΓÇôΓÇÖ├óΓÇôΓÇ£├óΓÇôΓÇ£├óΓÇôΓÇ£├óΓÇôΓÇ£├óΓÇôΓÇ£├óΓÇôΓÇ£├óΓÇôΓÇÖ├óΓÇôΓÇÖ├óΓÇôΓÇ£├óΓÇôΓÇ£├óΓÇôΓÇ£├óΓÇôΓÇ£├óΓÇôΓÇ£├óΓÇôΓÇÖ├óΓÇôΓÇÖ├óΓÇôΓÇ£├óΓÇôΓÇ£├óΓÇôΓÇ£├óΓÇôΓÇ£├óΓÇôΓÇ£├óΓÇôΓÇ£├óΓÇôΓÇÖ├óΓÇôΓÇÖ├óΓÇôΓÇ£├óΓÇôΓÇ£├óΓÇôΓÇ£├óΓÇôΓÇ£├óΓÇôΓÇ£├óΓÇôΓÇ£

SEED AFTER DOWNLOAD

  http://thepiratebay.org/user/HaUnTiNg.SuMMeR/

├óΓÇôΓÇ£├óΓÇôΓÇ£├óΓÇôΓÇ£├óΓÇôΓÇ£├óΓÇôΓÇ£├óΓÇôΓÇÖ├óΓÇôΓÇÖ├óΓÇôΓÇ£├óΓÇôΓÇ£├óΓÇôΓÇ£├óΓÇôΓÇ£├óΓÇôΓÇ£├óΓÇôΓÇ£├óΓÇôΓÇÖ├óΓÇôΓÇÖ├óΓÇôΓÇ£├óΓÇôΓÇ£├óΓÇôΓÇ£├óΓÇôΓÇ£├óΓÇôΓÇ£├óΓÇôΓÇ£├óΓÇôΓÇÖ├óΓÇôΓÇÖ├óΓÇôΓÇ£├óΓÇôΓÇ£├óΓÇôΓÇ£├óΓÇôΓÇ£├óΓÇôΓÇ£├óΓÇôΓÇ£├óΓÇôΓÇÖ├óΓÇôΓÇÖ├óΓÇôΓÇ£├óΓÇôΓÇ£├óΓÇôΓÇ£├óΓÇôΓÇ£├óΓÇôΓÇ£├óΓÇôΓÇÖ├óΓÇôΓÇÖ├óΓÇôΓÇ£├óΓÇôΓÇ£├óΓÇôΓÇ£├óΓÇôΓÇ£├óΓÇôΓÇ£├óΓÇôΓÇ£├óΓÇôΓÇÖ├óΓÇôΓÇÖ├óΓÇôΓÇ£├óΓÇôΓÇ£├óΓÇôΓÇ£├óΓÇôΓÇ£├óΓÇôΓÇ£├óΓÇôΓÇ£├óΓÇôΓÇÖ├óΓÇôΓÇÖ├óΓÇôΓÇ£├óΓÇôΓÇ£├óΓÇôΓÇ£├óΓÇôΓÇ£├óΓÇôΓÇ£├óΓÇôΓÇ£├óΓÇôΓÇÖ├óΓÇôΓÇÖ├óΓÇôΓÇ£├óΓÇôΓÇ£├óΓÇôΓÇ£├óΓÇôΓÇ£├óΓÇôΓÇ£├óΓÇôΓÇÖ├óΓÇôΓÇÖ├óΓÇôΓÇ£├óΓÇôΓÇ£├óΓÇôΓÇ£├óΓÇôΓÇ£├óΓÇôΓÇ£├óΓÇôΓÇ£├óΓÇôΓÇÖ├óΓÇôΓÇÖ├óΓÇôΓÇ£├óΓÇôΓÇ£├óΓÇôΓÇ£├óΓÇôΓÇ£├óΓÇôΓÇ£├óΓÇôΓÇ£

                          Don't forgett to comment

├óΓÇôΓÇ£├óΓÇôΓÇ£├óΓÇôΓÇ£├óΓÇôΓÇ£├óΓÇôΓÇ£├óΓÇôΓÇÖ├óΓÇôΓÇÖ├óΓÇôΓÇ£├óΓÇôΓÇ£├óΓÇôΓÇ£├óΓÇôΓÇ£├óΓÇôΓÇ£├óΓÇôΓÇ£├óΓÇôΓÇÖ├óΓÇôΓÇÖ├óΓÇôΓÇ£├óΓÇôΓÇ£├óΓÇôΓÇ£├óΓÇôΓÇ£├óΓÇôΓÇ£├óΓÇôΓÇ£├óΓÇôΓÇÖ├óΓÇôΓÇÖ├óΓÇôΓÇ£├óΓÇôΓÇ£├óΓÇôΓÇ£├óΓÇôΓÇ£├óΓÇôΓÇ£├óΓÇôΓÇ£├óΓÇôΓÇÖ├óΓÇôΓÇÖ├óΓÇôΓÇ£├óΓÇôΓÇ£├óΓÇôΓÇ£├óΓÇôΓÇ£├óΓÇôΓÇ£├óΓÇôΓÇÖ├óΓÇôΓÇÖ├óΓÇôΓÇ£├óΓÇôΓÇ£├óΓÇôΓÇ£├óΓÇôΓÇ£├óΓÇôΓÇ£├óΓÇôΓÇ£├óΓÇôΓÇÖ├óΓÇôΓÇÖ├óΓÇôΓÇ£├óΓÇôΓÇ£├óΓÇôΓÇ£├óΓÇôΓÇ£├óΓÇôΓÇ£├óΓÇôΓÇ£├óΓÇôΓÇÖ├óΓÇôΓÇÖ├óΓÇôΓÇ£├óΓÇôΓÇ£├óΓÇôΓÇ£├óΓÇôΓÇ£├óΓÇôΓÇ£├óΓÇôΓÇ£├óΓÇôΓÇÖ├óΓÇôΓÇÖ├óΓÇôΓÇ£├óΓÇôΓÇ£├óΓÇôΓÇ£├óΓÇôΓÇ£├óΓÇôΓÇ£├óΓÇôΓÇÖ├óΓÇôΓÇÖ├óΓÇôΓÇ£├óΓÇôΓÇ£├óΓÇôΓÇ£├óΓÇôΓÇ£├óΓÇôΓÇ£├óΓÇôΓÇ£├óΓÇôΓÇÖ├óΓÇôΓÇÖ├óΓÇôΓÇ£├óΓÇôΓÇ£├óΓÇôΓÇ£├óΓÇôΓÇ£├óΓÇôΓÇ£├óΓÇôΓÇ£

              
├óΓÇôΓÇ£├óΓÇôΓÇ£├óΓÇôΓÇ£├óΓÇôΓÇ£├óΓÇôΓÇ£├óΓÇôΓÇÖ├óΓÇôΓÇÖ├óΓÇôΓÇ£├óΓÇôΓÇ£├óΓÇôΓÇ£├óΓÇôΓÇ£├óΓÇôΓÇ£├óΓÇôΓÇ£├óΓÇôΓÇÖ├óΓÇôΓÇÖ├óΓÇôΓÇ£├óΓÇôΓÇ£├óΓÇôΓÇ£├óΓÇôΓÇ£├óΓÇôΓÇ£├óΓÇôΓÇ£├óΓÇôΓÇÖ├óΓÇôΓÇÖ├óΓÇôΓÇ£├óΓÇôΓÇ£├óΓÇôΓÇ£├óΓÇôΓÇ£├óΓÇôΓÇ£├óΓÇôΓÇ£├óΓÇôΓÇÖ├óΓÇôΓÇÖ├óΓÇôΓÇ£├óΓÇôΓÇ£├óΓÇôΓÇ£├óΓÇôΓÇ£├óΓÇôΓÇ£├óΓÇôΓÇÖ├óΓÇôΓÇÖ├óΓÇôΓÇ£├óΓÇôΓÇ£├óΓÇôΓÇ£├óΓÇôΓÇ£├óΓÇôΓÇ£├óΓÇôΓÇ£├óΓÇôΓÇÖ├óΓÇôΓÇÖ├óΓÇôΓÇ£├óΓÇôΓÇ£├óΓÇôΓÇ£├óΓÇôΓÇ£├óΓÇôΓÇ£├óΓÇôΓÇ£├óΓÇôΓÇÖ├óΓÇôΓÇÖ├óΓÇôΓÇ£├óΓÇôΓÇ£├óΓÇôΓÇ£├óΓÇôΓÇ£├óΓÇôΓÇ£├óΓÇôΓÇ£├óΓÇôΓÇÖ├óΓÇôΓÇÖ├óΓÇôΓÇ£├óΓÇôΓÇ£├óΓÇôΓÇ£├óΓÇôΓÇ£├óΓÇôΓÇ£├óΓÇôΓÇÖ├óΓÇôΓÇÖ├óΓÇôΓÇ£├óΓÇôΓÇ£├óΓÇôΓÇ£├óΓÇôΓÇ£├óΓÇôΓÇ£├óΓÇôΓÇ£├óΓÇôΓÇÖ├óΓÇôΓÇÖ├óΓÇôΓÇ£├óΓÇôΓÇ£├óΓÇôΓÇ£├óΓÇôΓÇ£├óΓÇôΓÇ£├óΓÇôΓÇ£